<svg xmlns="http://www.w3.org/2000/svg" xmlns:xlink="http://www.w3.org/1999/xlink" width="175" zoomAndPan="magnify" viewBox="0 0 131.25 38.999999" height="52" preserveAspectRatio="xMidYMid meet" version="1.0"><defs><clipPath id="5827717b93"><path d="M 20 10 L 130.503906 10 L 130.503906 30 L 20 30 Z M 20 10 " clip-rule="nonzero"/></clipPath></defs><g clip-path="url(#5827717b93)"><path fill="#161616" d="M 130.25 19.402344 C 130.125 18.769531 129.933594 18.199219 129.554688 17.628906 C 129.363281 16.992188 129.238281 16.675781 128.792969 16.230469 L 127.96875 15.277344 C 127.335938 14.582031 126.828125 14.261719 126.132812 13.882812 C 126.007812 13.820312 125.941406 13.753906 125.816406 13.691406 C 125.5625 13.5 125.308594 13.375 124.992188 13.3125 C 124.738281 13.246094 124.484375 13.246094 124.296875 13.183594 C 124.167969 13.183594 124.042969 13.121094 123.980469 13.121094 C 123.914062 13.121094 123.914062 13.121094 123.851562 13.121094 L 123.726562 13.121094 C 122.902344 12.929688 122.457031 12.867188 121.570312 12.867188 C 121 12.867188 120.558594 12.929688 120.050781 12.992188 C 118.402344 13.246094 117.769531 13.4375 116.1875 14.261719 C 115.238281 14.769531 114.539062 15.597656 113.96875 16.421875 C 113.96875 16.421875 113.90625 16.359375 113.90625 16.359375 L 113.082031 15.40625 C 112.449219 14.707031 111.941406 14.390625 111.246094 14.007812 C 111.117188 13.945312 111.054688 13.882812 110.929688 13.820312 C 110.675781 13.628906 110.421875 13.5 110.105469 13.4375 C 109.851562 13.375 109.597656 13.375 109.40625 13.3125 C 109.28125 13.3125 109.15625 13.246094 109.089844 13.246094 C 109.027344 13.246094 109.027344 13.246094 108.964844 13.246094 L 108.839844 13.246094 C 108.015625 13.058594 107.570312 12.992188 106.683594 12.992188 C 106.113281 12.992188 105.671875 13.058594 105.164062 13.121094 C 103.515625 13.375 102.882812 13.566406 101.300781 14.390625 C 100.917969 14.644531 100.539062 14.898438 100.160156 15.277344 C 100.160156 15.214844 100.160156 15.152344 100.160156 15.089844 C 100.222656 14.261719 100.285156 13.5 100.09375 12.675781 C 100.03125 12.105469 99.777344 11.660156 99.335938 11.28125 C 98.703125 10.773438 98.066406 10.519531 97.179688 10.519531 C 96.800781 10.519531 96.359375 10.519531 95.976562 10.519531 C 95.597656 10.519531 95.152344 10.519531 94.773438 10.519531 C 94.582031 10.519531 94.457031 10.519531 94.265625 10.519531 C 93.761719 10.457031 93.191406 10.519531 92.621094 10.519531 C 92.238281 10.519531 91.921875 10.582031 91.542969 10.582031 C 91.226562 10.582031 90.910156 10.582031 90.59375 10.519531 C 90.339844 10.519531 90.085938 10.457031 89.832031 10.457031 L 89.390625 10.457031 C 88.503906 10.457031 87.488281 10.644531 86.792969 11.535156 C 86.726562 11.40625 86.664062 11.21875 86.539062 11.089844 C 86.285156 10.773438 85.96875 10.457031 85.589844 10.328125 C 85.398438 10.265625 85.207031 10.203125 85.019531 10.136719 C 84.828125 10.074219 84.636719 10.074219 84.449219 10.074219 L 84.132812 10.074219 C 84.066406 10.074219 84.003906 10.074219 83.941406 10.074219 L 83.179688 10.136719 L 83.117188 10.136719 C 82.992188 10.136719 82.863281 10.136719 82.800781 10.136719 C 82.609375 10.074219 82.292969 10.074219 81.722656 10.074219 C 81.40625 10.074219 81.214844 10.074219 81.089844 10.136719 L 80.710938 10.136719 C 80.457031 10.136719 80.203125 10.203125 79.949219 10.265625 C 79.632812 10.390625 79.378906 10.582031 79.125 10.773438 C 78.871094 11.027344 78.683594 11.40625 78.554688 11.851562 C 78.492188 12.042969 78.492188 12.296875 78.492188 12.550781 L 78.492188 13.375 C 78.492188 13.4375 78.492188 13.4375 78.492188 13.5 C 78.429688 13.5 78.429688 13.5 78.367188 13.4375 C 78.050781 13.3125 77.730469 13.3125 77.414062 13.3125 C 77.226562 13.3125 77.097656 13.3125 76.972656 13.3125 C 76.972656 13.3125 76.910156 13.3125 76.84375 13.3125 L 75.769531 13.3125 C 75.578125 13.3125 75.136719 13.3125 74.566406 13.3125 C 74.3125 13.3125 73.996094 13.3125 73.488281 13.3125 L 71.839844 13.3125 C 69.875 13.3125 69.308594 13.3125 68.925781 13.3125 L 68.292969 13.3125 C 68.101562 13.3125 67.660156 13.375 67.214844 13.5 C 66.773438 13.628906 66.457031 13.820312 66.140625 14.136719 C 65.949219 14.328125 65.824219 14.515625 65.695312 14.707031 C 65.570312 14.453125 65.378906 14.199219 65.125 14.007812 L 65.0625 13.945312 C 64.871094 13.820312 64.617188 13.628906 64.175781 13.4375 C 63.859375 13.3125 63.542969 13.3125 63.226562 13.3125 C 63.035156 13.3125 62.90625 13.3125 62.78125 13.3125 C 62.78125 13.3125 62.71875 13.3125 62.65625 13.3125 L 61.578125 13.3125 C 61.386719 13.3125 60.945312 13.3125 60.375 13.3125 C 60.121094 13.3125 59.804688 13.3125 59.296875 13.3125 L 57.648438 13.3125 C 55.6875 13.3125 55.117188 13.3125 54.734375 13.3125 L 54.101562 13.3125 C 53.914062 13.3125 53.46875 13.375 53.023438 13.5 C 52.644531 13.628906 52.328125 13.753906 52.074219 14.007812 L 51.949219 13.945312 C 51.695312 14.199219 51.441406 14.582031 51.316406 15.023438 C 51.1875 15.34375 51.125 15.722656 51.125 16.039062 L 51.125 16.105469 C 51.0625 16.039062 50.996094 15.976562 50.933594 15.914062 L 50.871094 15.851562 C 50.746094 15.722656 50.492188 15.40625 50.300781 15.214844 C 50.175781 15.089844 49.984375 14.898438 49.859375 14.769531 L 49.730469 14.644531 C 49.539062 14.515625 49.097656 14.199219 48.589844 13.882812 C 48.148438 13.628906 47.765625 13.5 47.449219 13.4375 L 47.324219 13.4375 C 46.183594 13.183594 45.105469 12.929688 44.03125 12.929688 C 43.839844 12.929688 43.394531 12.929688 43.015625 12.992188 C 42.761719 12.992188 42.382812 13.058594 42.128906 13.121094 L 41.8125 13.3125 C 41.75 13.3125 41.621094 13.375 41.496094 13.375 C 41.433594 13.375 41.367188 13.4375 41.304688 13.4375 C 41.050781 13.566406 40.863281 13.628906 40.671875 13.691406 C 40.671875 13.691406 40.609375 13.691406 40.609375 13.753906 C 40.546875 13.753906 40.480469 13.820312 40.480469 13.820312 C 40.417969 13.882812 40.292969 13.882812 40.226562 13.882812 C 39.976562 13.945312 39.785156 14.074219 39.277344 14.328125 L 39.214844 14.390625 C 39.023438 14.515625 38.835938 14.644531 38.707031 14.835938 C 38.519531 15.023438 38.265625 15.34375 37.949219 15.660156 L 37.820312 15.785156 C 37.757812 15.851562 37.757812 15.851562 37.757812 15.914062 C 37.757812 15.785156 37.757812 15.722656 37.757812 15.597656 C 37.757812 15.277344 37.757812 15.089844 37.695312 14.898438 C 37.695312 14.835938 37.695312 14.835938 37.695312 14.769531 L 37.695312 13.4375 C 37.695312 13.375 37.695312 13.3125 37.695312 13.058594 C 37.695312 12.804688 37.628906 12.488281 37.503906 12.234375 C 37.441406 12.042969 37.3125 11.789062 37.1875 11.660156 L 37.0625 11.535156 C 36.679688 11.089844 36.238281 10.773438 35.667969 10.582031 L 35.539062 10.519531 C 35.222656 10.390625 34.589844 10.265625 33.765625 10.457031 C 33.386719 10.582031 32.816406 10.519531 32.246094 10.457031 C 31.675781 10.390625 31.105469 10.328125 30.535156 10.390625 C 30.34375 10.390625 30.15625 10.457031 29.964844 10.457031 C 29.648438 10.519531 29.269531 10.519531 28.886719 10.582031 C 28.382812 10.582031 27.9375 10.519531 27.429688 10.457031 L 27.304688 10.457031 C 26.796875 10.390625 26.226562 10.328125 25.65625 10.390625 C 25.46875 10.457031 25.277344 10.457031 25.023438 10.519531 C 24.769531 10.582031 24.515625 10.644531 24.199219 10.644531 C 23.882812 10.710938 23.503906 10.644531 23.1875 10.582031 C 22.554688 10.519531 21.855469 10.457031 21.347656 10.835938 C 20.78125 11.34375 20.84375 11.980469 20.84375 12.550781 C 20.84375 12.804688 20.84375 12.992188 20.84375 13.183594 C 20.84375 13.4375 20.78125 13.628906 20.78125 13.882812 C 20.96875 14.582031 20.90625 15.34375 20.90625 16.039062 C 20.90625 16.421875 20.96875 16.800781 21.03125 17.121094 C 21.097656 17.691406 21.160156 18.324219 21.160156 18.960938 C 21.160156 19.722656 21.097656 20.671875 20.84375 21.625 L 20.84375 21.6875 C 20.84375 22.195312 20.78125 22.703125 20.78125 23.210938 C 20.714844 23.71875 20.714844 24.226562 20.714844 24.734375 C 20.714844 25.6875 20.90625 26.511719 21.285156 27.273438 C 21.601562 27.910156 22.171875 28.351562 22.871094 28.605469 C 23.125 28.671875 23.375 28.734375 23.695312 28.796875 C 23.757812 28.796875 23.820312 28.796875 23.882812 28.796875 L 28.128906 28.796875 C 28.191406 28.796875 28.253906 28.796875 28.316406 28.796875 C 28.507812 28.796875 28.699219 28.796875 28.886719 28.796875 C 29.015625 28.796875 29.140625 28.796875 29.207031 28.796875 C 29.207031 28.796875 29.269531 28.796875 29.269531 28.796875 L 31.105469 28.796875 C 31.296875 28.796875 31.613281 28.859375 32.4375 28.859375 C 33.007812 28.859375 33.578125 28.796875 34.148438 28.671875 C 34.589844 28.542969 34.90625 28.417969 35.222656 28.289062 L 35.285156 28.226562 C 35.605469 28.097656 35.855469 27.972656 36.109375 27.84375 C 36.554688 27.589844 36.933594 27.335938 37.1875 27.148438 L 37.25 27.082031 C 37.566406 26.765625 37.820312 26.449219 38.011719 26.132812 C 38.011719 26.132812 38.074219 26.195312 38.074219 26.195312 L 38.199219 26.320312 C 38.707031 26.894531 39.214844 27.273438 39.785156 27.65625 L 39.910156 27.71875 C 40.101562 27.84375 40.417969 27.972656 40.734375 28.097656 L 40.796875 28.164062 C 40.988281 28.226562 41.179688 28.289062 41.304688 28.351562 L 41.496094 28.417969 C 41.75 28.480469 42.128906 28.605469 42.382812 28.671875 C 42.761719 28.734375 43.140625 28.859375 43.460938 28.859375 L 44.03125 28.925781 C 44.410156 28.988281 44.851562 29.050781 45.550781 29.050781 C 45.738281 29.050781 45.867188 29.050781 46.121094 28.988281 L 46.246094 28.988281 C 46.5625 28.988281 46.753906 28.988281 46.878906 28.988281 C 47.070312 28.988281 47.261719 28.988281 47.386719 28.988281 C 47.515625 28.988281 47.703125 28.988281 47.832031 28.988281 C 47.957031 28.988281 48.082031 28.988281 48.210938 28.988281 C 48.652344 28.988281 49.097656 28.925781 49.414062 28.859375 C 49.792969 28.796875 50.175781 28.671875 50.492188 28.480469 C 50.871094 28.671875 51.316406 28.796875 51.886719 28.859375 C 52.328125 28.925781 52.707031 28.925781 52.960938 28.925781 C 54.230469 28.925781 54.800781 28.734375 55.621094 28.480469 L 55.8125 28.417969 C 56.761719 28.097656 57.207031 27.910156 57.523438 27.464844 C 57.648438 27.78125 57.839844 27.910156 57.964844 28.097656 C 58.21875 28.417969 58.472656 28.542969 58.855469 28.671875 C 59.105469 28.796875 59.421875 28.796875 59.804688 28.796875 C 59.929688 28.796875 60.058594 28.796875 60.246094 28.796875 L 60.3125 28.796875 C 60.4375 28.796875 60.5625 28.796875 60.691406 28.796875 C 60.753906 28.796875 60.816406 28.796875 60.816406 28.796875 L 61.578125 28.859375 L 61.769531 28.859375 C 61.832031 28.859375 61.957031 28.859375 62.148438 28.859375 L 62.210938 28.859375 C 62.273438 28.859375 62.339844 28.859375 62.464844 28.859375 C 62.78125 28.859375 62.84375 28.859375 62.972656 28.859375 L 63.542969 28.859375 C 63.859375 28.859375 64.238281 28.796875 64.554688 28.605469 C 64.617188 28.605469 64.683594 28.542969 64.746094 28.542969 C 65.0625 28.734375 65.503906 28.859375 66.011719 28.925781 C 66.457031 28.988281 66.835938 28.988281 67.089844 28.988281 C 68.355469 28.988281 68.925781 28.796875 69.75 28.542969 L 69.941406 28.480469 C 70.890625 28.164062 71.332031 27.972656 71.652344 27.527344 C 71.777344 27.84375 71.96875 27.972656 72.09375 28.164062 C 72.347656 28.480469 72.601562 28.605469 72.980469 28.734375 C 73.234375 28.859375 73.550781 28.859375 73.929688 28.859375 C 74.058594 28.859375 74.183594 28.859375 74.375 28.859375 L 74.4375 28.859375 C 74.566406 28.859375 74.691406 28.859375 74.816406 28.859375 C 74.882812 28.859375 74.945312 28.859375 74.945312 28.859375 L 75.707031 28.925781 L 75.894531 28.925781 C 75.957031 28.925781 76.085938 28.925781 76.210938 28.925781 L 76.273438 28.925781 C 76.339844 28.925781 76.402344 28.925781 76.527344 28.925781 C 76.84375 28.925781 76.910156 28.925781 77.035156 28.925781 L 77.605469 28.925781 C 77.921875 28.925781 78.300781 28.859375 78.621094 28.671875 C 78.871094 28.542969 79.0625 28.417969 79.191406 28.351562 C 79.253906 28.417969 79.316406 28.480469 79.378906 28.542969 C 79.695312 28.796875 80.078125 28.925781 80.519531 28.925781 L 80.898438 28.925781 C 80.964844 28.925781 81.027344 28.925781 81.089844 28.925781 C 81.34375 28.925781 81.660156 28.925781 81.976562 28.859375 C 82.167969 28.859375 82.421875 28.859375 82.738281 28.859375 L 83.117188 28.859375 C 83.179688 28.859375 83.242188 28.859375 83.308594 28.859375 C 83.496094 28.859375 83.6875 28.925781 83.941406 28.925781 C 84.382812 28.925781 84.765625 28.859375 85.082031 28.734375 C 85.144531 28.734375 85.207031 28.671875 85.269531 28.671875 C 85.589844 28.542969 85.839844 28.351562 86.09375 28.097656 C 86.15625 28.035156 86.15625 28.035156 86.222656 27.972656 C 86.285156 27.910156 86.347656 27.78125 86.476562 27.65625 C 86.601562 27.910156 86.792969 28.097656 86.980469 28.289062 C 87.425781 28.671875 87.996094 28.925781 88.691406 28.925781 C 88.820312 28.925781 88.882812 28.925781 89.007812 28.925781 C 89.074219 28.925781 89.199219 28.925781 89.261719 28.925781 C 89.324219 28.925781 89.324219 28.925781 89.390625 28.925781 C 89.578125 28.925781 89.707031 28.925781 89.894531 28.925781 C 90.148438 28.925781 90.339844 28.925781 90.59375 28.925781 C 90.71875 28.925781 90.910156 28.925781 91.097656 28.925781 C 91.605469 28.925781 92.050781 28.925781 92.558594 28.925781 C 93.125 28.925781 93.761719 28.925781 94.332031 28.925781 C 94.457031 28.925781 94.582031 28.925781 94.710938 28.925781 C 94.964844 28.925781 95.28125 28.925781 95.535156 28.925781 C 95.914062 28.925781 96.292969 28.925781 96.738281 28.925781 L 96.863281 28.925781 C 97.117188 28.925781 97.433594 28.988281 97.6875 28.988281 C 98.003906 28.988281 98.320312 28.925781 98.636719 28.859375 C 99.019531 28.734375 99.273438 28.605469 99.589844 28.351562 C 100.03125 28.035156 100.285156 27.589844 100.414062 27.082031 C 100.601562 27.273438 100.792969 27.464844 100.980469 27.589844 C 101.363281 27.910156 101.804688 28.097656 102.25 28.289062 C 102.375 28.351562 102.566406 28.417969 102.691406 28.480469 C 103.390625 28.859375 103.769531 28.925781 104.464844 29.050781 L 105.035156 29.113281 C 105.417969 29.179688 105.734375 29.179688 106.050781 29.179688 C 106.242188 29.179688 106.492188 29.179688 106.683594 29.179688 C 106.875 29.179688 107.128906 29.179688 107.316406 29.179688 C 107.445312 29.179688 107.507812 29.179688 107.632812 29.179688 C 108.519531 29.179688 108.902344 29.050781 109.726562 28.859375 C 109.789062 28.859375 109.914062 28.796875 109.976562 28.796875 C 110.421875 28.734375 110.867188 28.605469 111.308594 28.289062 L 112.070312 27.78125 C 112.132812 27.71875 112.257812 27.65625 112.386719 27.589844 C 112.765625 27.335938 113.273438 26.957031 113.527344 26.640625 C 113.527344 26.640625 113.589844 26.574219 113.589844 26.574219 C 113.78125 26.386719 113.96875 26.066406 114.160156 25.75 C 114.347656 26.003906 114.539062 26.257812 114.792969 26.449219 C 114.917969 26.574219 115.046875 26.703125 115.171875 26.828125 C 115.425781 27.082031 115.679688 27.335938 115.933594 27.589844 C 116.3125 27.910156 116.757812 28.097656 117.199219 28.289062 C 117.328125 28.351562 117.515625 28.417969 117.644531 28.480469 C 118.339844 28.859375 118.722656 28.925781 119.417969 29.050781 L 119.988281 29.113281 C 120.367188 29.179688 120.683594 29.179688 121 29.179688 C 121.191406 29.179688 121.445312 29.179688 121.636719 29.179688 C 121.761719 29.179688 121.824219 29.179688 121.953125 29.179688 C 122.078125 29.179688 122.140625 29.179688 122.269531 29.179688 C 122.394531 29.179688 122.457031 29.179688 122.585938 29.179688 C 123.472656 29.179688 123.851562 29.050781 124.675781 28.859375 C 124.738281 28.859375 124.867188 28.796875 124.929688 28.796875 C 125.371094 28.734375 125.816406 28.605469 126.257812 28.289062 L 127.019531 27.78125 C 127.082031 27.71875 127.210938 27.65625 127.335938 27.589844 C 127.714844 27.335938 128.222656 26.957031 128.476562 26.640625 C 128.476562 26.640625 128.539062 26.574219 128.539062 26.574219 C 128.730469 26.386719 128.921875 26.066406 129.109375 25.75 C 129.175781 25.625 129.238281 25.496094 129.300781 25.433594 C 129.742188 24.734375 129.996094 24.292969 130.25 23.402344 L 130.441406 22.769531 C 130.566406 22.324219 130.632812 21.753906 130.632812 21.179688 C 130.441406 20.484375 130.378906 19.976562 130.25 19.402344 Z M 130.25 19.402344 " fill-opacity="1" fill-rule="nonzero"/></g><path fill="#acce52" d="M 80.078125 13.246094 C 80.078125 13.566406 80.140625 13.882812 80.203125 14.007812 C 80.265625 14.136719 80.582031 14.261719 80.773438 14.261719 L 81.535156 14.261719 C 81.660156 14.261719 81.851562 14.261719 81.976562 14.261719 C 82.230469 14.261719 82.484375 14.328125 82.738281 14.328125 C 83.5625 14.328125 83.496094 14.261719 84.003906 14.328125 L 84.382812 14.328125 C 84.449219 14.328125 84.511719 14.328125 84.699219 14.328125 C 85.019531 14.328125 85.082031 14.261719 85.207031 14.199219 C 85.335938 14.074219 85.460938 13.945312 85.398438 13.5 L 85.335938 12.488281 C 85.335938 12.167969 85.082031 11.980469 84.953125 11.914062 C 84.828125 11.851562 84.636719 11.851562 84.449219 11.851562 C 84.257812 11.851562 84.195312 11.851562 84.132812 11.851562 L 83.117188 11.914062 C 82.925781 11.914062 82.863281 11.980469 82.671875 11.914062 C 82.484375 11.914062 82.421875 11.851562 81.722656 11.851562 C 81.214844 11.851562 81.34375 11.914062 81.027344 11.914062 L 80.710938 11.914062 C 80.519531 11.914062 80.394531 11.980469 80.265625 12.042969 C 80.140625 12.167969 80.140625 12.421875 80.140625 12.550781 Z M 81.914062 14.898438 C 81.597656 14.898438 81.851562 14.898438 81.40625 14.898438 C 81.28125 14.898438 81.214844 14.898438 81.089844 14.898438 C 81.089844 14.898438 81.027344 14.898438 81.027344 14.898438 C 80.457031 14.898438 79.949219 15.152344 79.949219 15.660156 C 79.949219 15.660156 79.949219 15.722656 79.949219 15.722656 C 79.949219 15.785156 79.949219 15.851562 79.949219 15.914062 C 79.949219 16.039062 79.949219 16.105469 79.949219 16.230469 L 79.949219 16.421875 C 79.949219 17.054688 79.949219 16.800781 79.949219 17.121094 C 79.949219 17.4375 79.886719 18.894531 79.886719 19.023438 L 79.949219 19.910156 C 80.011719 21.433594 79.886719 22.261719 79.824219 22.894531 C 79.824219 22.957031 79.824219 22.957031 79.824219 23.023438 C 79.824219 23.277344 79.824219 23.53125 79.886719 23.785156 C 79.886719 23.972656 79.886719 24.101562 79.886719 24.292969 C 79.886719 24.925781 79.824219 24.796875 79.824219 25.8125 C 79.824219 26.386719 79.886719 26.574219 80.078125 26.828125 C 80.203125 26.957031 80.394531 27.148438 80.648438 27.148438 C 80.710938 27.148438 80.835938 27.148438 80.898438 27.148438 C 81.214844 27.148438 82.230469 27.082031 82.738281 27.082031 L 83.117188 27.082031 C 83.433594 27.082031 83.625 27.148438 83.941406 27.148438 C 84.449219 27.148438 84.699219 27.019531 84.890625 26.828125 C 85.207031 26.511719 85.269531 26.195312 85.207031 25.8125 L 85.144531 25.050781 C 85.144531 24.796875 85.144531 24.542969 85.144531 23.277344 L 85.144531 21.878906 C 85.144531 21.5 85.207031 21.117188 85.207031 20.671875 C 85.207031 20.609375 85.207031 20.546875 85.207031 20.417969 C 85.207031 20.101562 85.207031 19.722656 85.207031 19.402344 C 85.207031 19.214844 85.207031 19.023438 85.207031 18.832031 L 85.269531 16.292969 C 85.269531 15.914062 85.207031 15.46875 85.082031 15.214844 C 84.890625 14.898438 84.511719 14.835938 84.320312 14.835938 C 84.257812 14.835938 84.257812 14.835938 84.195312 14.835938 C 83.308594 14.835938 83.242188 14.960938 82.925781 14.898438 Z M 66.898438 16.867188 C 66.835938 17.4375 67.027344 17.753906 66.835938 19.277344 C 66.835938 19.53125 66.773438 19.785156 66.773438 20.039062 C 66.773438 20.417969 66.773438 20.800781 66.773438 21.117188 C 66.710938 21.5 66.582031 21.816406 66.457031 22.132812 C 66.390625 22.261719 66.265625 22.449219 66.140625 22.449219 L 65.824219 22.515625 C 65.570312 22.578125 65.378906 22.449219 65.1875 22.769531 C 65 23.148438 65.125 23.910156 65.125 24.292969 L 65.125 24.796875 C 65.125 25.179688 65.0625 25.304688 65.0625 26.066406 C 65.0625 26.386719 65.125 26.765625 65.378906 26.957031 C 65.695312 27.210938 66.519531 27.210938 67.027344 27.210938 C 68.101562 27.210938 68.546875 27.019531 69.304688 26.765625 C 70.320312 26.449219 70.320312 26.386719 70.953125 24.988281 C 71.523438 23.71875 71.332031 23.785156 71.398438 23.023438 L 71.523438 21.5 C 71.585938 21.179688 71.523438 20.738281 71.652344 20.355469 C 71.777344 19.785156 72.03125 19.722656 72.222656 19.722656 L 72.410156 19.722656 C 72.539062 19.722656 72.726562 19.722656 72.789062 19.847656 C 72.855469 19.910156 72.980469 20.164062 72.980469 20.484375 L 72.980469 20.800781 C 72.980469 21.308594 72.917969 21.753906 72.917969 22.261719 C 72.917969 22.703125 73.042969 23.148438 73.042969 23.59375 C 73.042969 23.972656 72.980469 24.292969 72.980469 24.671875 C 72.980469 24.796875 72.980469 24.988281 72.980469 25.117188 C 72.980469 25.179688 72.980469 25.242188 72.980469 25.558594 L 72.980469 25.6875 C 72.980469 26.066406 72.980469 26.132812 72.980469 26.257812 C 72.980469 26.574219 73.042969 26.703125 73.171875 26.765625 C 73.296875 26.957031 73.425781 27.019531 73.804688 27.019531 C 74.121094 27.019531 74.5 26.957031 74.816406 27.019531 L 75.832031 27.082031 C 76.085938 27.082031 76.273438 27.082031 76.527344 27.082031 C 76.910156 27.082031 77.289062 27.082031 77.605469 27.082031 C 77.921875 27.082031 78.175781 26.828125 78.238281 26.765625 C 78.300781 26.703125 78.367188 26.449219 78.429688 26.386719 C 78.429688 26.320312 78.429688 26.257812 78.429688 26.132812 C 78.429688 26.066406 78.429688 26.066406 78.429688 26.003906 C 78.429688 25.75 78.429688 25.558594 78.429688 25.304688 C 78.429688 25.117188 78.429688 24.863281 78.429688 24.671875 C 78.429688 24.480469 78.429688 24.480469 78.429688 24.101562 C 78.429688 23.71875 78.429688 23.71875 78.429688 23.402344 L 78.429688 22.769531 C 78.429688 22.386719 78.429688 22.261719 78.367188 21.5625 C 78.367188 21.433594 78.367188 21.371094 78.367188 21.246094 L 78.367188 20.738281 C 78.367188 19.59375 78.492188 18.832031 78.429688 18.324219 C 78.300781 17.5 78.429688 17.753906 78.367188 17.375 L 78.367188 16.929688 C 78.367188 16.359375 78.429688 16.105469 78.429688 15.914062 L 78.429688 15.660156 C 78.429688 15.53125 78.367188 15.277344 78.113281 15.023438 C 78.050781 14.960938 77.796875 14.769531 77.351562 14.769531 C 77.035156 14.769531 77.097656 14.769531 76.84375 14.769531 L 76.402344 14.769531 C 76.273438 14.769531 76.085938 14.769531 75.957031 14.769531 C 75.894531 14.769531 75.894531 14.769531 75.832031 14.769531 C 75.769531 14.769531 75.769531 14.769531 75.707031 14.769531 C 74.945312 14.769531 74.183594 14.835938 73.425781 14.835938 L 71.777344 14.835938 C 69.117188 14.835938 68.800781 14.769531 68.230469 14.769531 C 68.101562 14.769531 67.53125 14.835938 67.28125 15.089844 C 67.089844 15.277344 66.960938 15.722656 66.960938 16.105469 Z M 52.773438 16.867188 C 52.707031 17.4375 52.898438 17.753906 52.707031 19.277344 C 52.707031 19.53125 52.644531 19.785156 52.644531 20.039062 C 52.644531 20.417969 52.644531 20.800781 52.644531 21.117188 C 52.582031 21.5 52.457031 21.816406 52.328125 22.132812 C 52.265625 22.261719 52.136719 22.449219 52.011719 22.449219 L 51.695312 22.515625 C 51.441406 22.578125 51.25 22.449219 51.0625 22.769531 C 50.871094 23.148438 50.996094 23.910156 50.996094 24.292969 L 50.996094 24.796875 C 50.996094 25.179688 50.933594 25.304688 50.933594 26.066406 C 50.933594 26.386719 50.996094 26.765625 51.25 26.957031 C 51.566406 27.210938 52.390625 27.210938 52.898438 27.210938 C 53.976562 27.210938 54.417969 27.019531 55.179688 26.765625 C 56.191406 26.449219 56.191406 26.386719 56.828125 24.988281 C 57.398438 23.71875 57.207031 23.785156 57.269531 23.023438 L 57.398438 21.5 C 57.460938 21.179688 57.398438 20.738281 57.523438 20.355469 C 57.648438 19.785156 57.902344 19.722656 58.09375 19.722656 L 58.285156 19.722656 C 58.410156 19.722656 58.601562 19.722656 58.664062 19.847656 C 58.726562 19.910156 58.855469 20.164062 58.855469 20.484375 L 58.855469 20.800781 C 58.855469 21.308594 58.789062 21.753906 58.789062 22.261719 C 58.789062 22.703125 58.917969 23.148438 58.917969 23.59375 C 58.917969 23.972656 58.855469 24.292969 58.855469 24.671875 C 58.855469 24.796875 58.855469 24.988281 58.855469 25.117188 C 58.855469 25.179688 58.855469 25.242188 58.855469 25.558594 L 58.855469 25.6875 C 58.855469 26.066406 58.855469 26.132812 58.855469 26.257812 C 58.855469 26.574219 58.917969 26.703125 59.042969 26.765625 C 59.171875 26.957031 59.296875 27.019531 59.675781 27.019531 C 59.992188 27.019531 60.375 26.957031 60.691406 27.019531 L 61.703125 27.082031 C 61.957031 27.082031 62.148438 27.082031 62.402344 27.082031 C 62.78125 27.082031 63.160156 27.082031 63.476562 27.082031 C 63.796875 27.082031 64.046875 26.828125 64.113281 26.765625 C 64.175781 26.703125 64.238281 26.449219 64.300781 26.386719 C 64.300781 26.320312 64.300781 26.257812 64.300781 26.132812 C 64.300781 26.066406 64.300781 26.066406 64.300781 26.003906 C 64.300781 25.75 64.300781 25.558594 64.300781 25.304688 C 64.300781 25.117188 64.300781 24.863281 64.300781 24.671875 C 64.300781 24.480469 64.300781 24.480469 64.300781 24.101562 C 64.300781 23.71875 64.300781 23.71875 64.300781 23.402344 L 64.300781 22.769531 C 64.300781 22.386719 64.300781 22.261719 64.238281 21.5625 C 64.238281 21.433594 64.238281 21.371094 64.238281 21.246094 L 64.238281 20.738281 C 64.238281 19.59375 64.363281 18.832031 64.300781 18.324219 C 64.175781 17.5 64.300781 17.753906 64.238281 17.375 L 64.238281 16.929688 C 64.238281 16.359375 64.300781 16.105469 64.300781 15.914062 L 64.300781 15.660156 C 64.300781 15.53125 64.238281 15.277344 63.984375 15.023438 C 63.921875 14.960938 63.667969 14.769531 63.226562 14.769531 C 62.90625 14.769531 62.972656 14.769531 62.71875 14.769531 L 62.273438 14.769531 C 62.148438 14.769531 61.957031 14.769531 61.832031 14.769531 C 61.769531 14.769531 61.769531 14.769531 61.703125 14.769531 C 61.640625 14.769531 61.640625 14.769531 61.578125 14.769531 C 60.816406 14.769531 60.058594 14.835938 59.296875 14.835938 L 57.648438 14.835938 C 54.988281 14.835938 54.671875 14.769531 54.101562 14.769531 C 53.976562 14.769531 53.40625 14.835938 53.152344 15.089844 C 52.960938 15.277344 52.835938 15.722656 52.835938 16.105469 Z M 43.332031 19.277344 C 43.207031 19.277344 42.953125 19.214844 42.890625 19.085938 C 42.824219 19.023438 42.761719 18.832031 42.761719 18.832031 C 42.761719 18.515625 43.015625 18.390625 43.078125 18.390625 C 43.207031 18.324219 43.269531 18.324219 43.394531 18.324219 C 43.777344 18.261719 44.03125 18.261719 44.21875 18.261719 L 44.410156 18.261719 C 44.410156 18.261719 44.410156 18.261719 44.472656 18.261719 C 44.535156 18.261719 44.597656 18.261719 44.597656 18.261719 C 44.597656 18.261719 44.664062 18.261719 44.664062 18.261719 C 45.296875 18.261719 45.488281 18.390625 45.738281 18.578125 C 45.929688 18.707031 45.992188 18.894531 45.992188 18.960938 C 45.992188 19.085938 45.929688 19.148438 45.867188 19.214844 C 45.613281 19.339844 45.550781 19.402344 45.421875 19.402344 C 45.421875 19.402344 45.421875 19.402344 45.359375 19.402344 C 45.296875 19.402344 45.296875 19.402344 45.234375 19.402344 C 45.105469 19.402344 45.105469 19.402344 44.851562 19.339844 C 44.535156 19.339844 44.410156 19.402344 44.15625 19.402344 Z M 42.382812 14.835938 C 42.128906 14.898438 42.128906 14.898438 41.9375 14.960938 C 41.621094 15.089844 41.496094 15.214844 41.242188 15.277344 C 40.734375 15.53125 40.671875 15.46875 40.039062 15.851562 C 39.976562 15.851562 39.785156 15.976562 39.023438 16.867188 C 38.074219 18.007812 38.074219 18.515625 37.820312 19.53125 C 37.695312 20.101562 37.566406 20.292969 37.566406 20.863281 C 37.566406 21.5625 37.628906 22.449219 38.199219 23.464844 C 38.519531 24.101562 39.40625 25.433594 40.671875 26.132812 C 41.050781 26.320312 41.75 26.640625 42.003906 26.765625 C 42.320312 26.894531 43.207031 27.082031 43.648438 27.148438 L 44.09375 27.210938 C 44.472656 27.273438 44.851562 27.335938 45.488281 27.335938 C 45.613281 27.335938 45.804688 27.335938 46.054688 27.273438 C 46.5625 27.210938 46.878906 27.273438 47.195312 27.210938 L 47.957031 27.148438 C 48.84375 27.082031 49.351562 26.957031 49.605469 26.765625 C 49.730469 26.703125 49.984375 26.511719 49.921875 25.75 L 49.859375 24.925781 C 49.792969 24.417969 49.921875 24.164062 49.921875 23.785156 C 49.921875 23.71875 49.921875 23.53125 49.792969 23.339844 C 49.667969 23.148438 49.351562 23.085938 49.097656 23.148438 L 48.589844 23.277344 C 48.402344 23.339844 47.957031 23.402344 47.578125 23.402344 L 46.246094 23.402344 C 45.675781 23.402344 45.867188 23.339844 45.167969 23.339844 C 45.105469 23.339844 45.042969 23.339844 44.980469 23.339844 C 44.789062 23.339844 44.664062 23.339844 44.472656 23.339844 C 44.21875 23.339844 44.15625 23.339844 44.03125 23.277344 C 43.839844 23.277344 43.710938 23.277344 43.394531 23.023438 C 43.269531 22.957031 43.078125 22.832031 43.078125 22.640625 C 43.078125 22.449219 43.207031 22.195312 43.777344 22.195312 L 44.597656 22.195312 C 44.851562 22.195312 44.917969 22.261719 45.234375 22.195312 C 45.359375 22.195312 45.550781 22.132812 45.613281 22.132812 C 45.992188 22.132812 45.929688 22.195312 46.878906 22.195312 L 47.070312 22.195312 C 47.195312 22.195312 47.386719 22.195312 47.640625 22.132812 C 48.019531 22.070312 48.273438 22.070312 48.652344 22.070312 L 49.667969 22.070312 C 49.859375 22.070312 50.109375 22.070312 50.363281 21.816406 C 50.617188 21.5625 50.746094 20.925781 50.679688 20.609375 L 50.679688 20.164062 C 50.679688 20.039062 50.617188 19.976562 50.617188 19.53125 C 50.617188 18.960938 50.554688 18.894531 50.429688 18.578125 C 50.300781 18.136719 50.300781 17.753906 49.667969 16.992188 C 49.539062 16.867188 48.90625 16.167969 48.78125 16.039062 C 48.527344 15.851562 47.640625 15.214844 47.132812 15.089844 C 46.054688 14.835938 45.042969 14.582031 44.09375 14.582031 C 43.902344 14.582031 43.015625 14.644531 42.699219 14.707031 Z M 30.09375 22.578125 C 29.964844 22.578125 29.902344 22.578125 29.773438 22.578125 C 29.648438 22.578125 29.457031 22.578125 29.332031 22.578125 C 28.953125 22.578125 28.761719 22.515625 28.636719 22.386719 C 28.445312 22.261719 28.316406 22.070312 28.316406 21.6875 C 28.316406 21.5 28.316406 21.246094 28.570312 21.054688 C 28.886719 20.863281 28.953125 20.800781 29.394531 20.800781 L 29.457031 20.800781 C 29.902344 20.800781 30.027344 20.800781 30.15625 20.800781 C 30.410156 20.800781 30.789062 20.800781 31.296875 21.117188 C 31.421875 21.179688 31.613281 21.308594 31.613281 21.753906 C 31.613281 22.132812 31.421875 22.261719 31.296875 22.386719 C 30.980469 22.578125 30.851562 22.578125 30.472656 22.578125 Z M 22.871094 17.246094 C 22.871094 17.5625 22.871094 17.882812 22.804688 18.199219 C 22.742188 19.085938 22.804688 19.910156 22.804688 20.800781 C 22.804688 21.246094 22.742188 21.6875 22.742188 22.007812 C 22.742188 22.386719 22.742188 22.195312 22.804688 22.769531 C 22.804688 23.59375 22.804688 23.277344 22.804688 23.59375 C 22.804688 24.796875 22.617188 25.117188 22.617188 25.8125 C 22.617188 26.195312 22.742188 26.511719 22.871094 26.640625 C 23.25 27.148438 23.945312 27.019531 24.328125 27.019531 L 27.496094 27.019531 C 28.382812 27.019531 28.382812 27.082031 28.953125 27.082031 C 29.078125 27.082031 29.269531 27.082031 29.394531 27.082031 C 29.523438 27.082031 29.710938 27.082031 29.839844 27.082031 C 30.15625 27.082031 30.472656 27.082031 30.851562 27.082031 C 31.867188 27.082031 30.914062 27.148438 32.5625 27.148438 C 33.640625 27.148438 34.210938 26.894531 34.652344 26.703125 C 35.035156 26.511719 35.792969 26.195312 36.171875 25.8125 C 36.808594 25.242188 36.871094 24.542969 37.0625 23.972656 C 37.1875 23.59375 37.3125 23.402344 37.3125 22.894531 C 37.3125 21.308594 37.0625 20.800781 36.996094 20.671875 C 36.679688 20.164062 36.679688 19.847656 36.425781 19.53125 L 35.921875 19.023438 C 34.527344 17.691406 33.070312 17.628906 31.230469 17.628906 L 30.851562 17.628906 C 30.789062 17.628906 30.789062 17.628906 30.664062 17.628906 C 30.597656 17.628906 30.597656 17.628906 30.410156 17.628906 L 29.207031 17.628906 C 29.140625 17.628906 28.886719 17.5 28.886719 17.5 C 28.761719 17.308594 28.761719 17.183594 28.761719 17.121094 C 28.761719 16.929688 28.824219 16.800781 28.953125 16.675781 C 29.140625 16.546875 29.332031 16.546875 29.457031 16.546875 L 29.839844 16.546875 C 30.027344 16.546875 30.15625 16.613281 30.472656 16.613281 C 31.167969 16.613281 32.054688 16.484375 32.5 16.484375 C 33.828125 16.484375 33.578125 16.613281 34.335938 16.546875 L 35.160156 16.546875 C 35.285156 16.546875 35.539062 16.484375 35.792969 16.359375 C 36.109375 16.167969 36.171875 15.914062 36.171875 15.597656 C 36.171875 15.214844 36.109375 15.152344 36.109375 14.769531 L 36.109375 14.453125 C 36.109375 14.261719 36.109375 14.136719 36.109375 13.945312 C 36.109375 13.628906 36.109375 13.3125 36.109375 13.058594 C 36.109375 12.929688 36.046875 12.675781 35.921875 12.488281 C 35.605469 12.105469 35.160156 12.042969 34.652344 11.980469 C 34.019531 11.980469 32.625 12.042969 30.726562 12.042969 C 30.472656 12.042969 30.28125 12.042969 30.027344 12.042969 C 29.710938 12.042969 29.394531 12.042969 29.078125 12.042969 C 28.699219 12.042969 28.382812 11.980469 28 11.980469 C 26.734375 11.914062 26.480469 12.042969 25.339844 12.042969 L 24.390625 12.042969 C 24.328125 12.042969 24.261719 12.042969 24.199219 12.042969 C 24.074219 12.042969 24.074219 12.042969 23.945312 12.042969 C 22.742188 11.914062 22.871094 12.929688 22.871094 13.3125 Z M 22.871094 17.246094 " fill-opacity="1" fill-rule="nonzero"/><path fill="#ffffff" d="M 123.027344 20.101562 C 123.28125 20.292969 123.472656 20.671875 123.472656 21.054688 C 123.472656 21.179688 123.410156 21.371094 123.28125 21.625 C 122.964844 22.132812 122.710938 22.261719 122.207031 22.386719 C 122.078125 22.386719 121.953125 22.386719 121.824219 22.449219 C 121.699219 22.449219 121.570312 22.515625 121.507812 22.515625 C 121.316406 22.515625 120.429688 22.195312 120.242188 22.132812 C 119.988281 22.007812 119.609375 21.625 119.609375 21.054688 C 119.609375 20.609375 119.796875 20.292969 120.304688 19.910156 C 120.496094 19.785156 120.558594 19.722656 120.683594 19.65625 C 120.75 19.65625 120.8125 19.59375 121 19.59375 C 121.191406 19.59375 121.316406 19.59375 121.507812 19.59375 C 121.636719 19.59375 121.761719 19.59375 121.824219 19.59375 C 122.207031 19.53125 122.839844 19.910156 123.027344 20.101562 M 120.050781 27.335938 C 120.621094 27.402344 120.8125 27.335938 121.128906 27.335938 C 121.316406 27.335938 121.507812 27.335938 121.761719 27.335938 C 121.953125 27.335938 122.207031 27.335938 122.394531 27.335938 C 122.773438 27.335938 122.710938 27.402344 124.042969 27.082031 C 124.234375 27.019531 124.800781 26.957031 125.054688 26.765625 L 125.816406 26.257812 C 126.578125 25.6875 126.894531 25.496094 126.957031 25.433594 C 126.957031 25.433594 127.019531 25.371094 127.019531 25.371094 C 127.019531 25.371094 127.082031 25.304688 127.082031 25.304688 C 127.210938 25.179688 127.335938 24.988281 127.714844 24.355469 C 128.285156 23.53125 128.351562 23.210938 128.414062 22.832031 L 128.605469 22.195312 C 128.730469 21.816406 128.730469 21.371094 128.730469 21.054688 C 128.730469 20.609375 128.667969 20.230469 128.605469 19.847656 C 128.285156 18.515625 128.222656 18.769531 128.035156 18.453125 C 127.84375 18.070312 128.035156 17.945312 127.527344 17.4375 L 126.703125 16.484375 C 126.070312 15.785156 125.371094 15.46875 124.992188 15.214844 C 124.867188 15.152344 124.675781 15.023438 124.550781 14.960938 C 124.421875 14.960938 124.296875 14.898438 124.234375 14.898438 C 123.980469 14.898438 123.726562 14.835938 123.472656 14.769531 C 122.394531 14.515625 122.394531 14.515625 121.570312 14.515625 C 121.066406 14.515625 120.8125 14.515625 120.304688 14.582031 C 118.785156 14.769531 118.46875 14.835938 117.074219 15.660156 C 116.25 16.105469 115.617188 16.992188 115.109375 17.753906 C 114.730469 18.324219 114.539062 18.960938 114.285156 20.039062 C 114.222656 20.355469 114.222656 20.417969 114.222656 20.800781 C 114.222656 21.6875 114.351562 21.816406 114.476562 22.261719 C 114.601562 22.957031 114.351562 22.578125 114.917969 23.785156 C 115.046875 23.972656 115.300781 24.480469 115.871094 24.988281 C 116.375 25.496094 116.628906 25.8125 116.820312 25.941406 C 117.199219 26.257812 117.832031 26.449219 118.277344 26.703125 C 118.972656 27.082031 119.101562 27.019531 119.542969 27.082031 Z M 108.140625 20.101562 C 108.394531 20.292969 108.585938 20.671875 108.585938 21.054688 C 108.585938 21.179688 108.519531 21.371094 108.394531 21.625 C 108.078125 22.132812 107.824219 22.261719 107.316406 22.386719 C 107.191406 22.386719 107.0625 22.386719 106.9375 22.449219 C 106.8125 22.449219 106.683594 22.515625 106.621094 22.515625 C 106.429688 22.515625 105.542969 22.195312 105.355469 22.132812 C 105.101562 22.007812 104.71875 21.625 104.71875 21.054688 C 104.71875 20.609375 104.910156 20.292969 105.417969 19.910156 C 105.605469 19.785156 105.671875 19.722656 105.796875 19.65625 C 105.859375 19.65625 105.925781 19.59375 106.113281 19.59375 C 106.304688 19.59375 106.429688 19.59375 106.621094 19.59375 C 106.746094 19.59375 106.875 19.59375 106.9375 19.59375 C 107.316406 19.53125 107.949219 19.910156 108.140625 20.101562 Z M 105.226562 27.335938 C 105.796875 27.402344 105.988281 27.335938 106.304688 27.335938 C 106.492188 27.335938 106.683594 27.335938 106.9375 27.335938 C 107.128906 27.335938 107.382812 27.335938 107.570312 27.335938 C 107.949219 27.335938 107.886719 27.402344 109.21875 27.082031 C 109.40625 27.019531 109.976562 26.957031 110.230469 26.765625 L 110.992188 26.257812 C 111.753906 25.6875 112.070312 25.496094 112.132812 25.433594 C 112.132812 25.433594 112.195312 25.371094 112.195312 25.371094 C 112.195312 25.371094 112.257812 25.304688 112.257812 25.304688 C 112.386719 25.179688 112.511719 24.988281 112.890625 24.355469 C 113.460938 23.53125 113.527344 23.210938 113.589844 22.832031 L 113.78125 22.195312 C 113.90625 21.816406 113.90625 21.371094 113.90625 21.054688 C 113.90625 20.609375 113.84375 20.230469 113.78125 19.847656 C 113.460938 18.515625 113.398438 18.769531 113.210938 18.453125 C 113.019531 18.070312 113.210938 17.945312 112.703125 17.4375 L 111.878906 16.484375 C 111.246094 15.785156 110.546875 15.46875 110.167969 15.214844 C 110.042969 15.152344 109.851562 15.023438 109.726562 14.960938 C 109.597656 14.960938 109.472656 14.898438 109.40625 14.898438 C 109.15625 14.898438 108.902344 14.835938 108.648438 14.769531 C 107.570312 14.515625 107.570312 14.515625 106.746094 14.515625 C 106.242188 14.515625 105.988281 14.515625 105.480469 14.582031 C 103.960938 14.769531 103.644531 14.835938 102.25 15.660156 C 101.425781 16.105469 100.792969 16.992188 100.285156 17.753906 C 99.90625 18.324219 99.714844 18.960938 99.460938 20.039062 C 99.398438 20.355469 99.398438 20.417969 99.398438 20.800781 C 99.398438 21.6875 99.589844 21.816406 99.652344 22.261719 C 99.777344 22.957031 99.523438 22.578125 100.09375 23.785156 C 100.222656 23.972656 100.476562 24.480469 101.046875 24.988281 C 101.550781 25.496094 101.804688 25.8125 101.996094 25.941406 C 102.375 26.257812 103.007812 26.449219 103.453125 26.703125 C 104.148438 27.082031 104.277344 27.019531 104.71875 27.082031 Z M 89.074219 20.800781 C 88.882812 21.054688 88.945312 21.117188 88.628906 21.5 C 88.503906 21.625 88.3125 21.816406 88.183594 22.070312 C 87.996094 22.386719 87.804688 22.578125 87.804688 22.894531 C 87.804688 23.277344 87.867188 23.402344 87.867188 24.671875 C 87.804688 26.257812 87.804688 27.019531 88.691406 27.019531 C 88.882812 27.019531 89.074219 27.019531 89.261719 27.019531 C 89.390625 27.019531 89.515625 27.019531 89.640625 27.019531 C 89.769531 27.019531 89.960938 27.019531 90.085938 27.019531 C 90.402344 27.019531 90.71875 27.082031 91.035156 27.082031 C 91.988281 27.082031 92.9375 27.082031 93.886719 27.082031 C 94.140625 27.082031 94.394531 27.082031 94.648438 27.082031 C 95.660156 27.082031 96.039062 27.019531 96.800781 27.082031 C 97.117188 27.082031 97.433594 27.148438 97.6875 27.148438 C 97.816406 27.148438 98.003906 27.148438 98.132812 27.082031 C 98.320312 27.019531 98.386719 26.957031 98.511719 26.828125 C 98.636719 26.765625 98.703125 26.703125 98.765625 26.511719 C 98.890625 26.066406 98.890625 25.304688 98.890625 24.542969 C 98.890625 23.402344 98.765625 23.085938 98.765625 22.832031 C 98.765625 22.769531 98.765625 22.703125 98.765625 22.703125 C 98.765625 22.578125 98.511719 22.070312 98.195312 22.007812 C 98.003906 21.941406 98.066406 21.941406 97.878906 21.941406 C 97.816406 21.941406 97.816406 21.941406 97.75 21.941406 C 97.5625 21.941406 97.433594 21.941406 97.246094 21.941406 C 97.117188 21.941406 96.929688 21.941406 96.738281 21.941406 C 96.675781 21.941406 96.546875 21.941406 96.421875 21.941406 C 96.167969 21.941406 95.976562 21.941406 95.722656 21.941406 C 95.21875 21.941406 95.027344 21.941406 94.964844 21.878906 C 94.835938 21.816406 94.773438 21.816406 94.773438 21.625 C 94.773438 21.371094 94.902344 21.246094 95.027344 20.992188 C 95.089844 20.925781 95.152344 20.863281 95.40625 20.355469 C 96.167969 19.148438 95.722656 19.59375 96.167969 19.023438 C 96.484375 18.640625 96.800781 18.261719 96.992188 17.882812 C 97.117188 17.628906 97.246094 17.375 97.371094 17.183594 C 97.433594 17.054688 97.5625 16.929688 97.6875 16.867188 C 97.878906 16.675781 98.066406 16.484375 98.195312 16.230469 C 98.257812 16.105469 98.386719 15.976562 98.449219 15.277344 C 98.511719 14.453125 98.636719 13.566406 98.449219 12.738281 C 98.449219 12.613281 98.386719 12.488281 98.195312 12.359375 C 97.878906 12.042969 97.5625 11.980469 97.179688 11.980469 C 96.359375 11.980469 95.535156 11.980469 94.710938 11.980469 C 94.394531 11.980469 94.015625 11.914062 93.695312 11.914062 C 92.9375 11.914062 92.238281 11.980469 91.480469 11.980469 C 90.59375 11.980469 90.277344 11.914062 89.707031 11.851562 C 89.578125 11.851562 89.453125 11.851562 89.390625 11.851562 C 88.753906 11.851562 88.3125 11.914062 87.996094 12.359375 C 87.804688 12.613281 87.742188 12.929688 87.742188 13.246094 C 87.742188 13.375 87.742188 13.566406 87.742188 13.691406 C 87.742188 13.945312 87.742188 14.136719 87.742188 14.390625 C 87.742188 15.023438 87.742188 15.597656 87.742188 16.167969 C 87.742188 16.421875 87.804688 16.675781 87.996094 16.867188 C 88.183594 16.992188 88.503906 16.992188 88.628906 16.992188 C 89.578125 16.992188 89.324219 16.929688 89.832031 16.867188 C 89.960938 16.867188 90.085938 16.867188 90.210938 16.867188 C 90.277344 16.867188 90.402344 16.800781 90.53125 16.800781 C 90.78125 16.800781 90.910156 16.929688 90.972656 17.054688 C 91.035156 17.121094 91.035156 17.308594 91.035156 17.375 C 91.035156 17.4375 90.847656 17.753906 90.78125 17.882812 C 90.085938 19.023438 90.023438 19.402344 89.707031 19.847656 Z M 89.074219 20.800781 " fill-opacity="1" fill-rule="nonzero"/><path fill="#161616" d="M 26.289062 23.65625 C 26.226562 23.53125 26.164062 23.339844 26.101562 23.210938 C 25.46875 21.753906 24.707031 20.164062 24.328125 18.453125 L 24.328125 18.324219 C 24.074219 17.246094 23.882812 16.167969 23.058594 15.089844 L 21.792969 13.4375 C 20.589844 11.34375 18.816406 8.804688 15.457031 8.105469 C 12.480469 7.597656 10.960938 8.042969 9.503906 8.425781 L 9.25 8.425781 C 8.488281 8.550781 7.664062 8.804688 7.222656 9.503906 C 6.714844 10.203125 6.398438 10.519531 5.890625 10.964844 C 4.941406 11.597656 4.433594 12.359375 4.246094 13.3125 C 2.027344 13.882812 0.761719 14.644531 0.316406 15.597656 L 0.316406 15.660156 C -0.0625 16.992188 0.0625 18.515625 0.695312 20.039062 C 1.078125 20.992188 1.582031 21.6875 2.089844 22.449219 C 1.457031 23.277344 0.824219 24.355469 1.519531 25.304688 L 1.582031 25.371094 L 1.648438 25.433594 C 2.089844 25.75 2.21875 26.066406 2.34375 26.386719 C 2.40625 26.511719 2.472656 26.640625 2.535156 26.765625 C 3.039062 28.164062 4.117188 29.558594 5.386719 29.304688 C 6.019531 29.179688 6.207031 29.179688 6.460938 29.304688 C 6.589844 29.367188 6.652344 29.367188 6.714844 29.433594 C 6.96875 29.558594 7.285156 29.75 7.792969 29.8125 C 8.488281 29.941406 9.25 29.8125 10.074219 29.433594 C 10.390625 29.304688 10.644531 29.113281 10.960938 28.988281 C 11.785156 28.542969 12.542969 28.097656 13.429688 28.035156 C 13.746094 28.035156 14 28.035156 14.316406 28.035156 C 14.570312 28.035156 14.886719 28.097656 15.203125 28.097656 C 15.203125 28.097656 15.203125 28.097656 15.269531 28.097656 C 15.902344 28.097656 16.34375 27.65625 16.660156 27.335938 C 16.726562 27.273438 16.851562 27.148438 16.914062 27.082031 C 16.976562 27.082031 16.976562 27.082031 16.976562 27.082031 C 17.167969 27.335938 16.976562 28.351562 16.914062 28.796875 C 16.851562 29.050781 16.851562 29.242188 16.851562 29.367188 C 16.789062 29.875 16.976562 30.320312 17.296875 30.636719 C 17.613281 30.953125 17.929688 31.019531 18.433594 31.019531 C 18.625 31.019531 18.816406 31.019531 19.070312 31.082031 C 19.195312 31.082031 19.386719 31.082031 19.511719 31.082031 C 20.714844 31.082031 22.742188 30.636719 24.136719 29.433594 C 26.226562 27.84375 27.113281 25.371094 26.289062 23.65625 Z M 26.289062 23.65625 " fill-opacity="1" fill-rule="nonzero"/><path fill="#ffffff" d="M 3.292969 15.976562 C 3.863281 15.914062 4.433594 15.914062 4.816406 16.421875 C 4.941406 16.675781 4.941406 16.929688 4.816406 17.246094 C 4.75 17.308594 4.6875 17.375 4.496094 17.4375 C 4.117188 17.4375 3.738281 17.4375 3.484375 17.308594 C 3.359375 17.246094 2.976562 17.5 3.230469 17.753906 C 3.738281 18.324219 4.625 18.261719 5.386719 17.882812 C 6.082031 17.628906 6.082031 17.121094 5.765625 16.484375 C 5.511719 15.722656 4.433594 15.277344 2.914062 15.089844 C 2.34375 14.960938 1.964844 15.152344 1.648438 15.40625 C 1.457031 15.597656 1.457031 15.785156 1.710938 15.851562 C 2.28125 16.039062 2.660156 16.105469 3.292969 15.976562 Z M 3.292969 15.976562 " fill-opacity="1" fill-rule="evenodd"/><path fill="#ffffff" d="M 6.714844 23.972656 C 6.273438 24.355469 5.890625 24.671875 5.828125 24.988281 C 5.703125 25.242188 5.320312 25.433594 4.75 25.496094 C 4.371094 25.625 4.5625 25.878906 4.878906 25.75 C 5.828125 25.558594 6.714844 25.878906 7.539062 26.257812 C 7.792969 26.386719 7.917969 26.320312 7.792969 26.066406 C 7.476562 25.75 6.96875 25.558594 6.398438 25.371094 C 6.082031 25.371094 6.207031 24.863281 6.460938 24.925781 C 6.589844 24.988281 6.777344 25.050781 6.90625 25.050781 C 7.09375 25.179688 7.160156 25.117188 7.03125 24.609375 C 6.96875 24.226562 7.03125 24.039062 7.414062 24.101562 C 7.539062 24.164062 7.664062 24.226562 7.792969 24.292969 C 8.046875 24.480469 10.007812 24.671875 9.882812 24.164062 C 9.945312 23.972656 8.046875 23.53125 7.730469 23.339844 C 7.222656 23.023438 6.523438 22.894531 5.574219 22.894531 C 4.941406 23.023438 4.496094 22.894531 4.117188 22.640625 C 3.800781 22.515625 3.484375 22.386719 3.292969 22.703125 C 2.28125 23.785156 2.21875 24.671875 3.230469 25.304688 C 4.117188 25.433594 5.195312 24.863281 6.460938 23.71875 C 6.777344 23.53125 7.03125 23.785156 6.714844 23.972656 Z M 6.714844 23.972656 " fill-opacity="1" fill-rule="evenodd"/><path fill="#ffffff" d="M 12.921875 13.5 C 12.796875 13.5 12.734375 13.566406 12.734375 13.691406 C 12.734375 13.820312 12.796875 13.882812 12.921875 13.882812 C 13.050781 13.882812 13.113281 13.820312 13.113281 13.691406 C 13.113281 13.628906 12.988281 13.5 12.921875 13.5 Z M 12.921875 13.5 " fill-opacity="1" fill-rule="evenodd"/><path fill="#ffffff" d="M 12.542969 23.972656 C 12.671875 23.847656 12.671875 23.785156 12.355469 23.71875 C 11.972656 23.65625 11.785156 23.71875 11.65625 23.785156 C 11.464844 23.910156 11.339844 23.910156 11.214844 23.785156 C 11.085938 23.71875 10.960938 23.785156 10.894531 23.910156 C 10.832031 23.972656 10.707031 24.039062 10.644531 24.101562 C 10.515625 24.292969 10.578125 24.355469 10.769531 24.417969 C 11.59375 24.480469 12.164062 24.292969 12.542969 23.972656 Z M 12.542969 23.972656 " fill-opacity="1" fill-rule="evenodd"/><path fill="#ffffff" d="M 13.367188 13.183594 C 13.175781 13.121094 13.113281 13.3125 13.304688 13.375 C 13.621094 13.5 13.875 13.753906 14.128906 13.945312 C 14.253906 14.074219 14.378906 14.007812 14.316406 13.820312 C 14.128906 13.5 13.8125 13.3125 13.367188 13.183594 Z M 13.367188 13.183594 " fill-opacity="1" fill-rule="evenodd"/><path fill="#ffffff" d="M 25.152344 23.785156 C 24.644531 22.703125 23.757812 20.800781 23.1875 18.769531 C 22.871094 17.628906 22.617188 16.421875 21.539062 15.53125 C 20.714844 14.644531 20.210938 13.628906 19.703125 12.613281 C 18.371094 10.710938 17.167969 9.949219 15.332031 9.375 C 13.429688 8.996094 11.023438 8.996094 9.121094 9.695312 C 8.742188 9.820312 8.425781 9.757812 8.171875 10.074219 C 7.664062 10.710938 7.03125 11.34375 6.523438 11.789062 C 5.890625 12.234375 4.433594 14.136719 6.207031 13.5 C 6.460938 13.4375 6.273438 13.246094 6.144531 13.3125 C 5.890625 13.3125 5.890625 13.183594 6.019531 12.992188 C 6.207031 12.675781 6.398438 12.359375 6.460938 12.804688 C 6.523438 13.121094 6.714844 13.058594 6.90625 12.929688 C 7.347656 12.613281 7.347656 12.738281 7.03125 13.246094 C 6.96875 13.375 6.96875 13.3125 6.777344 13.566406 C 6.398438 14.136719 5.066406 14.261719 3.929688 14.582031 C 3.230469 14.707031 3.230469 14.898438 3.863281 15.023438 C 4.371094 15.023438 5.132812 15.152344 5.574219 15.597656 C 6.207031 16.292969 6.84375 17.375 6.019531 18.070312 C 5.703125 18.324219 5.386719 18.640625 4.878906 18.769531 C 4.625 18.832031 3.292969 19.785156 3.675781 20.292969 C 4.433594 21.625 8.425781 23.339844 9.945312 23.339844 C 11.148438 23.148438 12.226562 23.277344 13.304688 23.339844 C 13.621094 23.339844 13.8125 23.277344 13.683594 22.957031 C 13.621094 22.578125 13.492188 22.261719 13.429688 21.878906 C 13.367188 21.5625 13.683594 21.5625 13.746094 22.007812 C 14.128906 22.769531 14.191406 23.277344 14.0625 23.71875 C 13.746094 25.6875 11.785156 26.828125 9.757812 26.765625 C 9.3125 26.640625 8.996094 26.640625 8.679688 26.894531 C 8.300781 27.273438 7.855469 27.210938 7.476562 26.894531 C 6.96875 26.449219 6.398438 26.257812 5.890625 26.640625 C 5.320312 27.082031 4.75 27.148438 4.179688 26.828125 C 3.675781 26.511719 3.609375 26.957031 3.863281 27.210938 C 4.179688 27.972656 5.703125 28.796875 6.019531 28.351562 C 6.207031 27.910156 6.398438 28.035156 6.589844 28.351562 C 7.414062 29.367188 10.007812 28.542969 11.214844 27.910156 C 12.417969 27.335938 11.910156 27.402344 13.429688 26.703125 C 14.949219 26.003906 15.332031 27.589844 15.519531 26.765625 C 15.710938 25.8125 15.140625 25.304688 15.269531 24.925781 C 15.394531 24.542969 15.773438 25.75 16.34375 25.433594 C 16.914062 25.117188 16.851562 24.226562 16.597656 23.785156 C 16.28125 23.023438 16.472656 23.023438 16.914062 23.277344 C 17.421875 23.65625 17.675781 23.148438 17.546875 22.515625 C 17.484375 22.324219 17.546875 22.195312 17.738281 22.386719 C 17.929688 22.640625 18.117188 22.894531 18.308594 23.085938 C 18.5625 23.402344 18.625 23.210938 18.625 22.703125 C 18.5 21.878906 18.308594 21.179688 17.929688 20.546875 C 17.675781 20.164062 17.992188 20.039062 18.246094 20.417969 C 18.371094 20.671875 18.5 20.863281 18.6875 21.117188 C 19.070312 21.753906 19.195312 21.5 19.132812 20.738281 C 18.878906 18.960938 18.246094 17.5625 17.359375 16.546875 C 16.660156 15.976562 16.726562 15.34375 17.800781 16.167969 C 18.308594 16.613281 18.6875 17.054688 18.941406 17.691406 C 19.070312 18.261719 19.574219 18.453125 19.574219 17.753906 C 19.703125 17.308594 19.828125 16.546875 20.082031 16.167969 C 20.714844 15.46875 20.460938 16.105469 20.398438 16.675781 C 20.082031 18.007812 20.273438 19.53125 20.90625 21.117188 C 21.097656 21.5 20.714844 21.6875 20.527344 21.179688 C 20.460938 20.925781 20.335938 20.671875 20.273438 20.417969 C 20.019531 19.910156 19.890625 19.910156 19.828125 20.738281 C 19.703125 22.386719 19.449219 23.71875 19.132812 24.863281 C 19.132812 24.863281 18.183594 27.082031 18.433594 28.226562 C 18.433594 28.226562 18.433594 28.289062 18.433594 28.289062 C 18.5625 29.242188 19.003906 29.75 19.890625 29.75 C 20.144531 29.75 20.335938 29.75 20.527344 29.75 C 20.527344 29.75 22.171875 29.621094 22.871094 28.734375 C 23.566406 27.84375 22.871094 27.972656 24.136719 27.589844 C 25.53125 27.019531 25.59375 24.863281 25.152344 23.785156 Z M 13.492188 19.277344 L 11.847656 19.277344 C 11.148438 19.339844 12.289062 20.039062 11.785156 20.039062 C 11.023438 19.910156 10.390625 19.46875 9.820312 18.894531 C 9.375 18.453125 8.933594 17.945312 8.679688 17.246094 C 8.488281 16.929688 8.679688 16.800781 8.871094 16.992188 C 9.503906 17.753906 10.007812 18.515625 10.832031 18.515625 C 11.214844 18.515625 11.402344 18.453125 11.339844 18.199219 C 11.277344 18.007812 11.148438 17.753906 11.085938 17.5625 C 10.960938 17.308594 11.023438 17.308594 11.214844 17.4375 C 11.847656 18.136719 12.605469 18.707031 13.558594 19.023438 C 13.746094 19.085938 13.683594 19.214844 13.492188 19.277344 Z M 14.949219 14.515625 C 14.445312 14.582031 13.746094 14.644531 13.050781 14.582031 C 12.605469 14.582031 12.289062 14.199219 12.035156 14.074219 C 11.59375 13.945312 11.277344 14.007812 10.832031 13.945312 C 10.707031 13.945312 10.707031 13.820312 10.832031 13.753906 C 11.148438 13.628906 11.339844 13.5 11.214844 13.246094 C 11.023438 13.058594 11.148438 12.867188 11.464844 12.675781 C 11.71875 12.421875 11.910156 12.296875 12.164062 11.980469 C 12.289062 11.789062 12.355469 11.851562 12.480469 11.980469 C 12.671875 12.234375 12.796875 12.359375 12.734375 12.550781 C 12.605469 12.804688 12.859375 12.929688 13.175781 12.992188 C 13.683594 13.121094 14.191406 13.4375 14.570312 13.882812 C 15.078125 14.199219 15.332031 14.453125 14.949219 14.515625 Z M 16.15625 12.421875 C 15.710938 12.488281 15.332031 12.359375 14.949219 12.105469 C 14.632812 11.789062 14.316406 11.726562 14 11.789062 C 13.746094 11.914062 13.558594 11.851562 13.429688 11.597656 C 13.304688 11.34375 13.367188 11.152344 13.429688 10.964844 C 13.558594 10.773438 13.8125 10.773438 14.0625 10.835938 C 14.886719 11.089844 15.585938 11.535156 16.21875 12.167969 C 16.34375 12.296875 16.34375 12.359375 16.15625 12.421875 Z M 16.15625 12.421875 " fill-opacity="1" fill-rule="evenodd"/></svg>